<svg xmlns="http://www.w3.org/2000/svg" width="24.656" height="30.4" viewBox="0 0 24.656 30.4">
  <g id="Group_75" data-name="Group 75" transform="translate(-775.672 -277.8)">
    <g id="Group_58" data-name="Group 58">
      <path id="Path_42" data-name="Path 42" d="M775.873,308.2a.2.2,0,0,1-.2-.2V278a.2.2,0,0,1,.2-.2h24.254a.2.2,0,0,1,.2.2v30a.2.2,0,0,1-.2.2Zm22.778-1.677V279.477h-21.3v27.046Z" />
    </g>
    <g id="Group_63" data-name="Group 63">
      <g id="Group_59" data-name="Group 59">
        <rect id="Rectangle_17" data-name="Rectangle 17" width="1.677" height="3.592" rx="0.2" transform="translate(780.651 282.268)" />
      </g>
      <g id="Group_60" data-name="Group 60">
        <rect id="Rectangle_18" data-name="Rectangle 18" width="1.677" height="3.592" rx="0.2" transform="translate(784.991 282.268)" />
      </g>
      <g id="Group_61" data-name="Group 61">
        <rect id="Rectangle_19" data-name="Rectangle 19" width="1.677" height="3.592" rx="0.2" transform="translate(789.332 282.268)" />
      </g>
      <g id="Group_62" data-name="Group 62">
        <rect id="Rectangle_20" data-name="Rectangle 20" width="1.677" height="3.592" rx="0.2" transform="translate(793.672 282.268)" />
      </g>
    </g>
    <g id="Group_68" data-name="Group 68">
      <g id="Group_64" data-name="Group 64">
        <rect id="Rectangle_21" data-name="Rectangle 21" width="1.677" height="3.592" rx="0.2" transform="translate(780.651 288.14)" />
      </g>
      <g id="Group_65" data-name="Group 65">
        <rect id="Rectangle_22" data-name="Rectangle 22" width="1.677" height="3.592" rx="0.2" transform="translate(784.991 288.14)" />
      </g>
      <g id="Group_66" data-name="Group 66">
        <rect id="Rectangle_23" data-name="Rectangle 23" width="1.677" height="3.592" rx="0.2" transform="translate(789.332 288.14)" />
      </g>
      <g id="Group_67" data-name="Group 67">
        <rect id="Rectangle_24" data-name="Rectangle 24" width="1.677" height="3.592" rx="0.2" transform="translate(793.672 288.14)" />
      </g>
    </g>
    <g id="Group_73" data-name="Group 73">
      <g id="Group_69" data-name="Group 69">
        <rect id="Rectangle_25" data-name="Rectangle 25" width="1.677" height="3.592" rx="0.2" transform="translate(780.651 294.013)" />
      </g>
      <g id="Group_70" data-name="Group 70">
        <rect id="Rectangle_26" data-name="Rectangle 26" width="1.677" height="3.592" rx="0.2" transform="translate(784.991 294.013)" />
      </g>
      <g id="Group_71" data-name="Group 71">
        <rect id="Rectangle_27" data-name="Rectangle 27" width="1.677" height="3.592" rx="0.2" transform="translate(789.332 294.013)" />
      </g>
      <g id="Group_72" data-name="Group 72">
        <rect id="Rectangle_28" data-name="Rectangle 28" width="1.677" height="3.592" rx="0.2" transform="translate(793.672 294.013)" />
      </g>
    </g>
    <g id="Group_74" data-name="Group 74">
      <path id="Path_43" data-name="Path 43" d="M785.447,308.2a.2.2,0,0,1-.2-.2v-7.66a.2.2,0,0,1,.2-.2h5.106a.2.2,0,0,1,.2.2V308a.2.2,0,0,1-.2.2Zm3.629-1.677v-4.706h-2.152v4.706Z" />
    </g>
  </g>
</svg>
