<svg xmlns="http://www.w3.org/2000/svg" width="29.904" height="30" viewBox="0 0 29.904 30">
  <g id="Group_57" data-name="Group 57" transform="translate(-687.049 -278.001)">
    <g id="Group_52" data-name="Group 52">
      <g id="Group_51" data-name="Group 51">
        <path id="Path_39" data-name="Path 39" d="M695.277,279.875a4.1,4.1,0,0,0-6.891,0,7.5,7.5,0,0,0,0,8.546,4.82,4.82,0,0,0,1.768,1.491l-1.012,15.215a2.695,2.695,0,1,0,5.378,0l-1.011-15.214a4.833,4.833,0,0,0,1.768-1.492,7.5,7.5,0,0,0,0-8.546Zm-2.483,26.332a1.319,1.319,0,0,1-2.279-.989l.994-14.937c.107.009.214.015.322.015s.216-.006.323-.015l.993,14.937A1.3,1.3,0,0,1,692.794,306.207Zm-.963-17.287a2.479,2.479,0,0,1-.718-.108.578.578,0,0,0-.059-.019c-1.505-.494-2.629-2.388-2.629-4.645,0-2.63,1.528-4.771,3.406-4.771s3.407,2.141,3.407,4.771S693.71,288.92,691.831,288.92Z" />
      </g>
    </g>
    <g id="Group_54" data-name="Group 54">
      <g id="Group_53" data-name="Group 53">
        <path id="Path_40" data-name="Path 40" d="M716.953,295.926v-17.15l-.006,0a.688.688,0,0,0-1.044-.674,9.393,9.393,0,0,0-4.483,8.041h0v9.01a1.461,1.461,0,0,0,1.416,1.459v9.317a2.059,2.059,0,1,0,4.117,0V295.926Zm-4.073-.685a.084.084,0,0,1-.084-.084v-9.01h0a8.02,8.02,0,0,1,2.781-6.1v15.2Zm2.7,10.692a.683.683,0,0,1-1.365,0v-9.316h1.365v9.316Z" />
      </g>
    </g>
    <g id="Group_56" data-name="Group 56">
      <g id="Group_55" data-name="Group 55">
        <path id="Path_41" data-name="Path 41" d="M706.5,278a.688.688,0,0,0-.688.688v7.817H704.06v-7.817a.688.688,0,0,0-1.376,0v7.817H700.93v-7.817a.688.688,0,0,0-1.376,0v9.96a2.036,2.036,0,0,0,2.034,2.034h.123l-.966,14.511a2.632,2.632,0,1,0,5.253,0l-.966-14.511h.123a2.036,2.036,0,0,0,2.034-2.034v-9.96A.688.688,0,0,0,706.5,278Zm-2.212,28.226a1.256,1.256,0,0,1-2.171-.942l.972-14.6h.563l.972,14.6A1.245,1.245,0,0,1,704.289,306.227Zm1.524-17.578a.659.659,0,0,1-.658.658h-3.567a.659.659,0,0,1-.658-.658v-.768h4.883Z" />
      </g>
    </g>
  </g>
</svg>
