<svg xmlns="http://www.w3.org/2000/svg" width="31" height="18.713" viewBox="0 0 31 18.713">
  <g id="Group_76" data-name="Group 76" transform="translate(-624.149 -312.036)">
    <path id="Path_44" data-name="Path 44" d="M625.621,308.749a1.447,1.447,0,0,1-1.45-1.445l-.022-15.781a1.447,1.447,0,0,1,1.446-1.449l28.083-.039a1.45,1.45,0,0,1,1.45,1.446l.022,15.78a1.449,1.449,0,0,1-1.445,1.449Zm8.371-8.405a.646.646,0,0,1,.4,1.155l-7.683,5.958,25.865-.035-7.636-5.922a.645.645,0,0,1,.4-1.155.639.639,0,0,1,.4.136l8.133,6.307-.021-14.873-13.817,9.605a.644.644,0,0,1-.736,0l-13.843-9.567.02,14.835,8.136-6.308A.637.637,0,0,1,633.991,300.344Zm-7.133-8.98,12.792,8.84,12.767-8.876Z" transform="translate(0 22)" />
  </g>
</svg>
