<svg xmlns="http://www.w3.org/2000/svg" width="32.26" height="29.773" viewBox="0 0 32.26 29.773">
  <g id="Group_82" data-name="Group 82" transform="translate(-575.87 -281.04)">
    <g id="Group_77" data-name="Group 77" transform="translate(575.87 287.046)">
      <path id="Path_45" data-name="Path 45" d="M578.008,310.44a2.14,2.14,0,0,1-2.138-2.138v-.5a.639.639,0,0,1,.639-.638h.384l-.021-2.356A15.14,15.14,0,0,1,590.136,289.8a1.8,1.8,0,0,1-.274-.985,2.137,2.137,0,1,1,4.016,1.016A15.085,15.085,0,0,1,607.13,304.81v2.376l.361-.021a.64.64,0,0,1,.639.639v.5a2.14,2.14,0,0,1-2.138,2.138Zm-.85-2a.864.864,0,0,0,.85.723h27.985a.863.863,0,0,0,.853-.746ZM592,290.956a13.869,13.869,0,0,0-13.853,13.854v2.376l27.728-.021-.021-2.355A13.87,13.87,0,0,0,592,290.956Zm0-3.005a.861.861,0,1,0,.86.861A.862.862,0,0,0,592,287.951Z" transform="translate(-575.87 -286.674)" />
    </g>
    <g id="Group_78" data-name="Group 78" transform="translate(591.355 292.044)">
      <path id="Path_46" data-name="Path 46" d="M603.534,305.138a.639.639,0,0,1-.639-.638,11.875,11.875,0,0,0-11.861-11.861.639.639,0,1,1,0-1.277A13.153,13.153,0,0,1,604.171,304.5.638.638,0,0,1,603.534,305.138Z" transform="translate(-590.395 -291.362)" />
    </g>
    <g id="Group_79" data-name="Group 79" transform="translate(583.702 281.04)">
      <path id="Path_47" data-name="Path 47" d="M584.52,289.334a.642.642,0,0,1-.459-.2.638.638,0,0,1,.017-.9,1.961,1.961,0,0,0-.072-2.674,3.243,3.243,0,0,1,.072-4.343.63.63,0,0,1,.441-.179.637.637,0,0,1,.447,1.094,1.969,1.969,0,0,0,.07,2.678,3.244,3.244,0,0,1-.073,4.343A.637.637,0,0,1,584.52,289.334Z" transform="translate(-583.217 -281.04)" />
    </g>
    <g id="Group_80" data-name="Group 80" transform="translate(597.678 281.04)">
      <path id="Path_48" data-name="Path 48" d="M597.63,289.334a.639.639,0,0,1-.443-1.1,1.96,1.96,0,0,0-.074-2.674,3.247,3.247,0,0,1,.073-4.343.638.638,0,0,1,.89.915,1.968,1.968,0,0,0,.069,2.678,3.244,3.244,0,0,1-.072,4.343A.632.632,0,0,1,597.63,289.334Z" transform="translate(-596.326 -281.04)" />
    </g>
    <g id="Group_81" data-name="Group 81" transform="translate(590.697 281.04)">
      <path id="Path_49" data-name="Path 49" d="M591.082,285.825a.637.637,0,0,1-.517-.263,3.244,3.244,0,0,1,.074-4.342.639.639,0,0,1,.9.015.64.64,0,0,1-.012.9,1.964,1.964,0,0,0,.069,2.678.623.623,0,0,1,.114.474.631.631,0,0,1-.255.417A.641.641,0,0,1,591.082,285.825Z" transform="translate(-589.778 -281.04)" />
    </g>
  </g>
</svg>
