<svg xmlns="http://www.w3.org/2000/svg" width="26.74" height="30" viewBox="0 0 26.74 30">
  <g id="Group_83" data-name="Group 83" transform="translate(-534.63 -279)">
    <path id="Path_50" data-name="Path 50" d="M548,309c-7.372,0-13.37-5.75-13.37-12.817s6-12.816,13.37-12.816,13.37,5.749,13.37,12.816S555.372,309,548,309Zm0-24.329c-6.653,0-12.065,5.164-12.065,11.512S541.347,307.7,548,307.7s12.065-5.165,12.065-11.513S554.653,284.671,548,284.671Z" />
    <path id="Path_51" data-name="Path 51" d="M552.1,282.8H543.9a1.777,1.777,0,0,1-1.774-1.773v-.254A1.776,1.776,0,0,1,543.9,279H552.1a1.776,1.776,0,0,1,1.774,1.773v.254A1.777,1.777,0,0,1,552.1,282.8Zm-8.192-2.5a.47.47,0,0,0-.469.469v.254a.469.469,0,0,0,.469.468H552.1a.469.469,0,0,0,.469-.468v-.254a.47.47,0,0,0-.469-.469Z" />
    <path id="Path_52" data-name="Path 52" d="M559.7,287.94a1.65,1.65,0,0,1-1.166-.473h0l-1.662-1.654a1.558,1.558,0,0,1-.017-2.2c.02-.021.041-.041.062-.06a1.67,1.67,0,0,1,2.285.043l1.662,1.654a1.559,1.559,0,0,1,.017,2.205q-.03.031-.063.06A1.645,1.645,0,0,1,559.7,287.94Zm-.246-1.4a.355.355,0,0,0,.481.008.255.255,0,0,0,.009-.381l-1.662-1.653a.357.357,0,0,0-.482-.008.261.261,0,0,0-.089.189.257.257,0,0,0,.081.192Z" />
    <path id="Path_53" data-name="Path 53" d="M548.024,299.692a2.44,2.44,0,0,1-1.83-.813,2.273,2.273,0,0,1-.536-2l1.828-10.846a.651.651,0,0,1,.642-.543h.007a.653.653,0,0,1,.639.556l1.6,10.745a2.268,2.268,0,0,1-.414,1.964,2.431,2.431,0,0,1-1.839.934Zm.065-9.387-1.15,6.819a1,1,0,0,0,.23.888,1.162,1.162,0,0,0,1.643.068,1.034,1.034,0,0,0,.116-.123.976.976,0,0,0,.176-.861.63.63,0,0,1-.016-.076Z" />
  </g>
</svg>
